 <svg width="89" height="69" viewBox="0 0 89 69" fill="none" xmlns="http://www.w3.org/2000/svg">
<path d="M53.4248 39.0694C51.3348 49.8564 42.0812 57.8834 31.206 57.2701C20.3668 56.6567 11.4879 47.2191 10.9114 35.6884C10.2483 22.5171 20.1362 11.5691 32.3807 11.5691C38.348 11.5691 43.7604 14.1757 47.6593 18.3694C49.4899 20.3397 52.3366 20.7307 54.5275 19.2281C57.4175 17.2424 57.8715 12.9261 55.4572 10.3117C49.2809 3.62639 40.5677 -0.390945 30.997 0.0307218C14.6301 0.759055 1.14602 14.7431 0.0721884 32.1311C-1.1674 52.1564 13.8013 68.8774 32.3735 68.8774C48.0413 68.8774 61.1434 56.9787 64.1055 41.2314C64.7685 37.7277 62.2605 34.4464 58.9021 34.4464H58.7652C56.1563 34.4464 53.9365 36.3861 53.4176 39.0771L53.4248 39.0694Z" fill="#FFCE00"/>
<path d="M77.258 7.42898C74.0797 7.19898 71.0961 8.24932 68.7682 10.189L67.8385 11.0093L49.0213 27.8223C47.8898 28.8267 48.4448 30.797 49.9078 30.9656L74.4833 33.7946L75.622 33.925C75.7589 33.9326 75.9031 33.948 76.0544 33.948C76.5012 33.971 76.9336 33.9556 77.3733 33.9173C83.1172 33.419 87.9674 28.6733 88.7602 22.4863C89.7475 14.812 84.4072 7.96565 77.258 7.43665V7.42898ZM80.2416 20.8916C79.9894 22.816 78.339 24.173 76.5229 23.92C74.7139 23.667 73.4455 21.896 73.6833 19.964C73.9212 18.0396 75.586 16.6903 77.3877 16.9433C79.1966 17.1963 80.4722 18.9673 80.2344 20.884L80.2416 20.8916Z" fill="#282D42"/>
<path d="M32.1067 40.825C35.6691 40.825 38.5569 37.7529 38.5569 33.9633C38.5569 30.1737 35.6691 27.1017 32.1067 27.1017C28.5444 27.1017 25.6566 30.1737 25.6566 33.9633C25.6566 37.7529 28.5444 40.825 32.1067 40.825Z" fill="#282D42"/>
<path d="M33.1805 63.1196C17.5992 62.3606 5.5493 48.3076 6.26278 31.7323C6.68078 22.0416 11.3653 13.6389 18.3055 8.47928C9.61399 13.2479 3.50254 22.6856 3.02688 33.8099C2.3134 50.3853 14.3633 64.4383 29.9446 65.1973C36.4164 65.5116 42.4846 63.4799 47.4142 59.8153C43.1621 62.1536 38.2974 63.3649 33.1805 63.1196Z" fill="#FFD72E"/>
</svg>
